<?xml version="1.0" encoding="UTF-8"?>
<svg width="50px" height="50px" viewBox="0 0 50 50" version="1.1" xmlns="http://www.w3.org/2000/svg" xmlns:xlink="http://www.w3.org/1999/xlink">
    <!-- Generator: Sketch 52.4 (67378) - http://www.bohemiancoding.com/sketch -->
    <title>flow4-icon6</title>
    <desc>Created with Sketch.</desc>
    <g id="flow4-icon6" stroke="none" stroke-width="1" fill="none" fill-rule="evenodd">
        <g id="Group-2" transform="translate(4.000000, 24.081521)" stroke="#53B2FF" stroke-width="1.5">
            <path d="M6.18319507,7.41452813 C4.39736435,7.41452813 3.05107454,5.73153537 3.05107454,3.49937747 C3.05107454,1.91974469 3.40709224,0.106246903 6.18319507,0.106246903 C8.95929789,0.106246903 9.31531559,1.91974469 9.31531559,3.49937747 C9.31531559,5.73153537 7.96902579,7.41452813 6.18319507,7.41452813 Z" id="Shape" fill-rule="nonzero"></path>
            <path d="M8.27690759,6.17077803 L11.925416,8.15579665 L11.925416,9.50260848 C11.925416,10.634348 11.2081604,11.5906888 10.3593558,11.5906888 L2.00703437,11.5906888 C1.15822971,11.5906888 0.440974106,10.634348 0.440974106,9.50260848 L0.440974106,8.15579665 L3.74624547,6.3025992" id="Path"></path>
        </g>
        <path d="M21.1456169,11.2233078 C19.3597862,11.2233078 18.0134964,9.540315 18.0134964,7.30815711 C18.0134964,5.72852432 18.3695141,3.91502654 21.1456169,3.91502654 C23.9217197,3.91502654 24.2777374,5.72852432 24.2777374,7.30815711 C24.2777374,9.540315 22.9314476,11.2233078 21.1456169,11.2233078 Z" id="Shape" stroke="#53B2FF" stroke-width="1.5" fill-rule="nonzero"></path>
        <g id="Group" transform="translate(25.085235, 24.081521)" stroke="#53B2FF" stroke-width="1.5">
            <path d="M6.69966818,7.41452813 C4.91383746,7.41452813 3.56754765,5.73153537 3.56754765,3.49937747 C3.56754765,1.91974469 3.92356535,0.106246903 6.69966818,0.106246903 C9.475771,0.106246903 9.8317887,1.91974469 9.8317887,3.49937747 C9.8317887,5.73153537 8.4854989,7.41452813 6.69966818,7.41452813 Z" id="Shape" fill-rule="nonzero"></path>
            <path d="M8.7933807,6.17077803 L12.4418891,8.15579665 L12.4418891,9.50260848 C12.4418891,10.634348 11.7246335,11.5906888 10.8758289,11.5906888 L2.52350748,11.5906888 C1.67470282,11.5906888 0.957447216,10.634348 0.957447216,9.50260848 L0.957447216,8.15579665 L4.26271858,6.3025992" id="Path"></path>
        </g>
        <path d="M23.2393294,9.97955767 L26.8878379,11.9645763 L26.8878379,13.3113881 C26.8878379,14.4431277 26.1705823,15.3994685 25.3217776,15.3994685 L16.9694562,15.3994685 C16.1206515,15.3994685 15.4033959,14.4431277 15.4033959,13.3113881 L15.4033959,11.9645763 L18.7086673,10.1113788" id="Path" stroke="#53B2FF" stroke-width="1.5"></path>
        <rect id="Rectangle" fill="#53B2FF" x="20.6235968" y="17.9235267" width="1.04404017" height="5.22020087"></rect>
        <polygon id="Rectangle" fill="#53B2FF" points="20.817852 22.7351766 21.4702727 23.5502587 16.2513016 27.7277085 15.5988809 26.9126263"></polygon>
        <polygon id="Rectangle" fill="#53B2FF" points="21.4721913 22.7368369 26.6924994 26.9129497 26.0402875 27.7282406 20.8199794 23.5521279"></polygon>
    </g>
</svg>