<?xml version="1.0" encoding="UTF-8"?>
<svg width="50px" height="50px" viewBox="0 0 50 50" version="1.1" xmlns="http://www.w3.org/2000/svg" xmlns:xlink="http://www.w3.org/1999/xlink">
    <!-- Generator: Sketch 52.4 (67378) - http://www.bohemiancoding.com/sketch -->
    <title>flow4-icon7</title>
    <desc>Created with Sketch.</desc>
    <g id="flow4-icon7" stroke="none" stroke-width="1" fill="none" fill-rule="evenodd">
        <path d="M31.6211737,36.7593237 L27.5176447,36.7593237 C25.9014405,36.7593237 24.5865526,35.4444358 24.5865526,33.8282316 L24.5865526,5.68974737 C24.5865526,4.07354318 25.9014405,2.75865526 27.5176447,2.75865526 L31.6211737,2.75865526" id="Path" stroke="#53B2FF" stroke-width="1.5"></path>
        <path d="M35.1384842,4.93974737 C36.0174685,4.93974737 36.7333579,4.22385796 36.7333579,3.34487368 C36.7333579,2.46588941 36.0174685,1.75 35.1384842,1.75 C34.2594999,1.75 33.5436105,2.46588941 33.5436105,3.34487368 C33.5436105,4.22385796 34.2594999,4.93974737 35.1384842,4.93974737 Z" id="Shape" stroke="#53B2FF" stroke-width="1.5" fill-rule="nonzero"></path>
        <path d="M35.1384842,27.2160474 C36.0174685,27.2160474 36.7333579,26.5001579 36.7333579,25.6211737 C36.7333579,24.7421894 36.0174685,24.0263 35.1384842,24.0263 C34.2594999,24.0263 33.5436105,24.7421894 33.5436105,25.6211737 C33.5436105,26.5001579 34.2594999,27.2160474 35.1384842,27.2160474 Z" id="Shape" stroke="#53B2FF" stroke-width="1.5" fill-rule="nonzero"></path>
        <path d="M35.1384842,37.7679789 C36.0174685,37.7679789 36.7333579,37.0520895 36.7333579,36.1731052 C36.7333579,35.294121 36.0174685,34.5782316 35.1384842,34.5782316 C34.2594999,34.5782316 33.5436105,35.294121 33.5436105,36.1731052 C33.5436105,37.0520895 34.2594999,37.7679789 35.1384842,37.7679789 Z" id="Shape" stroke="#53B2FF" stroke-width="1.5" fill-rule="nonzero"></path>
        <rect id="Rectangle" fill="#53B2FF" x="24.5865526" y="25.0349553" width="7.03462105" height="1.17243684"></rect>
        <rect id="Rectangle" fill="#53B2FF" x="18.7735928" y="19.0106025" width="6.034621" height="1.17243684"></rect>
        <path d="M35.1384842,16.0778974 C36.0174685,16.0778974 36.7333579,15.362008 36.7333579,14.4830237 C36.7333579,13.6040394 36.0174685,12.88815 35.1384842,12.88815 C34.2594999,12.88815 33.5436105,13.6040394 33.5436105,14.4830237 C33.5436105,15.362008 34.2594999,16.0778974 35.1384842,16.0778974 Z" id="Shape" stroke="#53B2FF" stroke-width="1.5" fill-rule="nonzero"></path>
        <rect id="Rectangle" fill="#53B2FF" x="24.5865526" y="13.8968053" width="7.03462105" height="1.17243684"></rect>
        <g id="Group" transform="translate(4.342094, 14.158687)" stroke="#53B2FF" stroke-width="1.5">
            <path d="M6.69966818,7.41452813 C4.91383746,7.41452813 3.56754765,5.73153537 3.56754765,3.49937747 C3.56754765,1.91974469 3.92356535,0.106246903 6.69966818,0.106246903 C9.475771,0.106246903 9.8317887,1.91974469 9.8317887,3.49937747 C9.8317887,5.73153537 8.4854989,7.41452813 6.69966818,7.41452813 Z" id="Shape" fill-rule="nonzero"></path>
            <path d="M8.7933807,6.17077803 L12.4418891,8.15579665 L12.4418891,9.50260848 C12.4418891,10.634348 11.7246335,11.5906888 10.8758289,11.5906888 L2.52350748,11.5906888 C1.67470282,11.5906888 0.957447216,10.634348 0.957447216,9.50260848 L0.957447216,8.15579665 L4.26271858,6.3025992" id="Path"></path>
        </g>
    </g>
</svg>