<?xml version="1.0" encoding="UTF-8"?>
<svg width="51px" height="50px" viewBox="0 0 51 50" version="1.1" xmlns="http://www.w3.org/2000/svg" xmlns:xlink="http://www.w3.org/1999/xlink">
    <!-- Generator: Sketch 52.2 (67145) - http://www.bohemiancoding.com/sketch -->
    <title>flow1-icon5</title>
    <desc>Created with Sketch.</desc>
    <g id="flow1-icon5" stroke="none" stroke-width="1" fill="none" fill-rule="evenodd" transform="translate(0.666667, 0.000000)">
        <g id="35-unstructured-data" transform="translate(2.000000, 2.000000)" fill="#53B2FF">
            <path d="M10.96875,6.09375 C9.28870312,6.09375 7.921875,4.72692187 7.921875,3.046875 C7.921875,1.36682813 9.28870312,0 10.96875,0 C12.6487969,0 14.015625,1.36682813 14.015625,3.046875 C14.015625,4.72692187 12.6487969,6.09375 10.96875,6.09375 Z M10.96875,1.21875 C9.96084375,1.21875 9.140625,2.03896875 9.140625,3.046875 C9.140625,4.05478125 9.96084375,4.875 10.96875,4.875 C11.9766562,4.875 12.796875,4.05478125 12.796875,3.046875 C12.796875,2.03896875 11.9766562,1.21875 10.96875,1.21875 Z" id="Shape" fill-rule="nonzero"></path>
            <path d="M19.5,6.09375 C17.8199531,6.09375 16.453125,4.72692187 16.453125,3.046875 C16.453125,1.36682813 17.8199531,0 19.5,0 C21.1800469,0 22.546875,1.36682813 22.546875,3.046875 C22.546875,4.72692187 21.1800469,6.09375 19.5,6.09375 Z M19.5,1.21875 C18.4920938,1.21875 17.671875,2.03896875 17.671875,3.046875 C17.671875,4.05478125 18.4920938,4.875 19.5,4.875 C20.5079063,4.875 21.328125,4.05478125 21.328125,3.046875 C21.328125,2.03896875 20.5079063,1.21875 19.5,1.21875 Z" id="Shape" fill-rule="nonzero"></path>
            <path d="M10.96875,22.546875 C9.28870312,22.546875 7.921875,21.1800469 7.921875,19.5 C7.921875,17.8199531 9.28870312,16.453125 10.96875,16.453125 C12.6487969,16.453125 14.015625,17.8199531 14.015625,19.5 C14.015625,21.1800469 12.6487969,22.546875 10.96875,22.546875 Z M10.96875,17.671875 C9.96084375,17.671875 9.140625,18.4920938 9.140625,19.5 C9.140625,20.5079063 9.96084375,21.328125 10.96875,21.328125 C11.9766562,21.328125 12.796875,20.5079063 12.796875,19.5 C12.796875,18.4920938 11.9766562,17.671875 10.96875,17.671875 Z" id="Shape" fill-rule="nonzero"></path>
            <path d="M3.046875,31.078125 C1.36682813,31.078125 0,29.7112969 0,28.03125 C0,26.3512031 1.36682813,24.984375 3.046875,24.984375 C4.72692187,24.984375 6.09375,26.3512031 6.09375,28.03125 C6.09375,29.7112969 4.72692187,31.078125 3.046875,31.078125 Z M3.046875,26.203125 C2.03896875,26.203125 1.21875,27.0233438 1.21875,28.03125 C1.21875,29.0391562 2.03896875,29.859375 3.046875,29.859375 C4.05478125,29.859375 4.875,29.0391562 4.875,28.03125 C4.875,27.0233438 4.05478125,26.203125 3.046875,26.203125 Z" id="Shape" fill-rule="nonzero"></path>
            <path d="M28.03125,22.546875 C26.3512031,22.546875 24.984375,21.1800469 24.984375,19.5 C24.984375,17.8199531 26.3512031,16.453125 28.03125,16.453125 C29.7112969,16.453125 31.078125,17.8199531 31.078125,19.5 C31.078125,21.1800469 29.7112969,22.546875 28.03125,22.546875 Z M28.03125,17.671875 C27.0233438,17.671875 26.203125,18.4920938 26.203125,19.5 C26.203125,20.5079063 27.0233438,21.328125 28.03125,21.328125 C29.0391562,21.328125 29.859375,20.5079063 29.859375,19.5 C29.859375,18.4920938 29.0391563,17.671875 28.03125,17.671875 Z" id="Shape" fill-rule="nonzero"></path>
            <path d="M35.953125,31.078125 C34.2730781,31.078125 32.90625,29.7112969 32.90625,28.03125 C32.90625,26.3512031 34.2730781,24.984375 35.953125,24.984375 C37.6331719,24.984375 39,26.3512031 39,28.03125 C39,29.7112969 37.6331719,31.078125 35.953125,31.078125 Z M35.953125,26.203125 C34.9452187,26.203125 34.125,27.0233438 34.125,28.03125 C34.125,29.0391562 34.9452187,29.859375 35.953125,29.859375 C36.9610312,29.859375 37.78125,29.0391562 37.78125,28.03125 C37.78125,27.0233438 36.9610312,26.203125 35.953125,26.203125 Z" id="Shape" fill-rule="nonzero"></path>
            <path d="M19.5,39 C17.8199531,39 16.453125,37.6331719 16.453125,35.953125 C16.453125,34.2730781 17.8199531,32.90625 19.5,32.90625 C21.1800469,32.90625 22.546875,34.2730781 22.546875,35.953125 C22.546875,37.6331719 21.1800469,39 19.5,39 Z M19.5,34.125 C18.4920938,34.125 17.671875,34.9452187 17.671875,35.953125 C17.671875,36.9610312 18.4920938,37.78125 19.5,37.78125 C20.5079063,37.78125 21.328125,36.9610312 21.328125,35.953125 C21.328125,34.9452187 20.5079063,34.125 19.5,34.125 Z" id="Shape" fill-rule="nonzero"></path>
            <path d="M10.96875,39 C9.28870312,39 7.921875,37.6331719 7.921875,35.953125 C7.921875,34.2730781 9.28870312,32.90625 10.96875,32.90625 C12.6487969,32.90625 14.015625,34.2730781 14.015625,35.953125 C14.015625,37.6331719 12.6487969,39 10.96875,39 Z M10.96875,34.125 C9.96084375,34.125 9.140625,34.9452187 9.140625,35.953125 C9.140625,36.9610312 9.96084375,37.78125 10.96875,37.78125 C11.9766562,37.78125 12.796875,36.9610312 12.796875,35.953125 C12.796875,34.9452187 11.9766562,34.125 10.96875,34.125 Z" id="Shape" fill-rule="nonzero"></path>
            <circle id="Oval" cx="3.046875" cy="3.046875" r="1.21875"></circle>
            <circle id="Oval" cx="35.953125" cy="10.96875" r="1.21875"></circle>
            <circle id="Oval" cx="28.03125" cy="3.046875" r="1.21875"></circle>
            <circle id="Oval" cx="10.96875" cy="10.96875" r="1.21875"></circle>
            <circle id="Oval" cx="3.046875" cy="19.5" r="1.21875"></circle>
            <circle id="Oval" cx="28.03125" cy="35.953125" r="1.21875"></circle>
            <circle id="Oval" cx="19.5" cy="28.03125" r="1.21875"></circle>
            <circle id="Oval" cx="19.5" cy="20.109375" r="1.21875"></circle>
            <circle id="Oval" cx="35.953125" cy="35.953125" r="1.21875"></circle>
            <circle id="Oval" cx="3.046875" cy="35.953125" r="1.21875"></circle>
            <path d="M19.5,13.40625 C18.1557188,13.40625 17.0625,12.3130312 17.0625,10.96875 C17.0625,9.62446875 18.1557188,8.53125 19.5,8.53125 C20.8442813,8.53125 21.9375,9.62446875 21.9375,10.96875 C21.9375,12.3130312 20.8442813,13.40625 19.5,13.40625 Z M19.5,9.75 C18.8278594,9.75 18.28125,10.2966094 18.28125,10.96875 C18.28125,11.6408906 18.8278594,12.1875 19.5,12.1875 C20.1721406,12.1875 20.71875,11.6408906 20.71875,10.96875 C20.71875,10.2966094 20.1721406,9.75 19.5,9.75 Z" id="Shape" fill-rule="nonzero"></path>
            <path d="M28.03125,13.40625 C26.6869687,13.40625 25.59375,12.3130312 25.59375,10.96875 C25.59375,9.62446875 26.6869687,8.53125 28.03125,8.53125 C29.3755312,8.53125 30.46875,9.62446875 30.46875,10.96875 C30.46875,12.3130312 29.3755312,13.40625 28.03125,13.40625 Z M28.03125,9.75 C27.3591094,9.75 26.8125,10.2966094 26.8125,10.96875 C26.8125,11.6408906 27.3591094,12.1875 28.03125,12.1875 C28.7033906,12.1875 29.25,11.6408906 29.25,10.96875 C29.25,10.2966094 28.7033906,9.75 28.03125,9.75 Z" id="Shape" fill-rule="nonzero"></path>
            <path d="M35.953125,5.484375 C34.6088437,5.484375 33.515625,4.39115625 33.515625,3.046875 C33.515625,1.70259375 34.6088437,0.609375 35.953125,0.609375 C37.2974062,0.609375 38.390625,1.70259375 38.390625,3.046875 C38.390625,4.39115625 37.2974062,5.484375 35.953125,5.484375 Z M35.953125,1.828125 C35.2809844,1.828125 34.734375,2.37473438 34.734375,3.046875 C34.734375,3.71901562 35.2809844,4.265625 35.953125,4.265625 C36.6252656,4.265625 37.171875,3.71901562 37.171875,3.046875 C37.171875,2.37473438 36.6252656,1.828125 35.953125,1.828125 Z" id="Shape" fill-rule="nonzero"></path>
            <path d="M3.046875,13.40625 C1.70259375,13.40625 0.609375,12.3130312 0.609375,10.96875 C0.609375,9.62446875 1.70259375,8.53125 3.046875,8.53125 C4.39115625,8.53125 5.484375,9.62446875 5.484375,10.96875 C5.484375,12.3130312 4.39115625,13.40625 3.046875,13.40625 Z M3.046875,9.75 C2.37473438,9.75 1.828125,10.2966094 1.828125,10.96875 C1.828125,11.6408906 2.37473438,12.1875 3.046875,12.1875 C3.71901562,12.1875 4.265625,11.6408906 4.265625,10.96875 C4.265625,10.2966094 3.71901562,9.75 3.046875,9.75 Z" id="Shape" fill-rule="nonzero"></path>
            <path d="M10.96875,30.46875 C9.62446875,30.46875 8.53125,29.3755312 8.53125,28.03125 C8.53125,26.6869687 9.62446875,25.59375 10.96875,25.59375 C12.3130312,25.59375 13.40625,26.6869687 13.40625,28.03125 C13.40625,29.3755312 12.3130312,30.46875 10.96875,30.46875 Z M10.96875,26.8125 C10.2966094,26.8125 9.75,27.3591094 9.75,28.03125 C9.75,28.7033906 10.2966094,29.25 10.96875,29.25 C11.6408906,29.25 12.1875,28.7033906 12.1875,28.03125 C12.1875,27.3591094 11.6408906,26.8125 10.96875,26.8125 Z" id="Shape" fill-rule="nonzero"></path>
            <path d="M28.03125,30.46875 C26.6869687,30.46875 25.59375,29.3755312 25.59375,28.03125 C25.59375,26.6869687 26.6869687,25.59375 28.03125,25.59375 C29.3755312,25.59375 30.46875,26.6869687 30.46875,28.03125 C30.46875,29.3755312 29.3755312,30.46875 28.03125,30.46875 Z M28.03125,26.8125 C27.3591094,26.8125 26.8125,27.3591094 26.8125,28.03125 C26.8125,28.7033906 27.3591094,29.25 28.03125,29.25 C28.7033906,29.25 29.25,28.7033906 29.25,28.03125 C29.25,27.3591094 28.7033906,26.8125 28.03125,26.8125 Z" id="Shape" fill-rule="nonzero"></path>
            <path d="M35.953125,21.9375 C34.6088437,21.9375 33.515625,20.8442813 33.515625,19.5 C33.515625,18.1557187 34.6088437,17.0625 35.953125,17.0625 C37.2974062,17.0625 38.390625,18.1557188 38.390625,19.5 C38.390625,20.8442813 37.2974062,21.9375 35.953125,21.9375 Z M35.953125,18.28125 C35.2809844,18.28125 34.734375,18.8278594 34.734375,19.5 C34.734375,20.1721406 35.2809844,20.71875 35.953125,20.71875 C36.6252656,20.71875 37.171875,20.1721406 37.171875,19.5 C37.171875,18.8278594 36.6252656,18.28125 35.953125,18.28125 Z" id="Shape" fill-rule="nonzero"></path>
        </g>
    </g>
</svg>