<?xml version="1.0" encoding="UTF-8"?>
<svg width="60px" height="68px" viewBox="0 0 60 68" version="1.1" xmlns="http://www.w3.org/2000/svg" xmlns:xlink="http://www.w3.org/1999/xlink">
    <!-- Generator: Sketch 52.2 (67145) - http://www.bohemiancoding.com/sketch -->
    <title>icon-machine-learning</title>
    <desc>Created with Sketch.</desc>
    <g id="Dev" stroke="none" stroke-width="1" fill="none" fill-rule="evenodd">
        <g id="OnCorps_Home" transform="translate(-351.000000, -5755.000000)" fill="#53B2FF" fill-rule="nonzero">
            <g id="Group-31" transform="translate(200.000000, 5681.000000)">
                <g id="icon-machine-learning" transform="translate(151.000000, 74.000000)">
                    <g id="Group-5" transform="translate(0.610132, 0.439453)">
                        <polygon id="Rectangle-path" points="35.7399569 53.6706835 38.8722793 53.6706835 38.8722793 55.7588984 35.7399569 55.7588984"></polygon>
                        <path d="M16.9460224,67.2440806 L14.8578074,67.2440806 L14.8578074,54.7147909 C14.8578074,50.4057594 13.3490721,46.3577547 11.8037931,42.581218 L13.736436,41.7897845 C15.3600231,45.7594811 16.9460224,50.0277925 16.9460224,54.7147909 L16.9460224,67.2440806 Z" id="Shape"></path>
                        <path d="M39.9163868,67.2440806 L37.8281718,67.2440806 L37.8281718,54.7147909 C37.8281718,54.1373995 38.295932,53.6706835 38.8722793,53.6706835 L45.1369241,53.6706835 C48.0155284,53.6706835 50.3574615,51.3287504 50.3574615,48.4501461 L50.3574615,39.0531788 C50.3574615,38.4757874 50.8252217,38.0090714 51.401569,38.0090714 L56.6221063,38.0090714 L56.6221063,37.1946675 L50.4535194,23.8290478 C50.3898288,23.6922697 50.3574615,23.5429623 50.3574615,23.3915667 C50.3574615,11.8771495 40.9897293,2.50941728 29.475312,2.50941728 C27.4434789,2.50941728 25.4356602,2.79967915 23.5092819,3.37393826 L22.9130966,1.37342834 C25.0336789,0.741743323 27.2409221,0.421202329 29.475312,0.421202329 C42.0641159,0.421202329 52.3193395,10.6002061 52.4446323,23.1597749 L58.6142634,36.5274829 C58.677954,36.6642609 58.7103213,36.8135683 58.7103213,36.9649639 L58.7103213,39.0531788 C58.7103213,39.6305703 58.2425611,40.0972863 57.6662138,40.0972863 L52.4456765,40.0972863 L52.4456765,48.4501461 C52.4456765,52.4793568 49.167179,55.7588984 45.1369241,55.7588984 L39.9163868,55.7588984 L39.9163868,67.2440806 Z" id="Shape"></path>
                        <path d="M30.5194195,15.038707 L24.2547747,15.038707 L24.2547747,12.950492 L29.475312,12.950492 L29.475312,7.72995464 L31.563527,7.72995464 L31.563527,13.9945995 C31.563527,14.5719909 31.0957668,15.038707 30.5194195,15.038707 Z" id="Shape"></path>
                        <path d="M16.9460224,39.0531788 C7.73490625,39.0531788 0.240302806,31.5585754 0.240302806,22.3474593 C0.240302806,13.1363431 7.73490625,5.64173969 16.9460224,5.64173969 C22.2490442,5.64173969 27.1198056,8.07659832 30.3095539,12.3208952 L28.6400261,13.5748683 C25.8491268,9.86097799 21.586036,7.72995464 16.9460224,7.72995464 C8.88551268,7.72995464 2.32851775,14.2869496 2.32851775,22.3474593 C2.32851775,30.407969 8.88551268,36.9649639 16.9460224,36.9649639 C25.0065321,36.9649639 31.563527,30.407969 31.563527,22.3474593 L33.6517419,22.3474593 C33.6517419,31.5585754 26.1571385,39.0531788 16.9460224,39.0531788 Z" id="Shape"></path>
                        <path d="M16.9460224,29.6562116 C12.9157675,29.6562116 9.63727006,26.37667 9.63727006,22.3474593 C9.63727006,18.3182485 12.9157675,15.038707 16.9460224,15.038707 C20.9762772,15.038707 24.2547747,18.3182485 24.2547747,22.3474593 C24.2547747,26.37667 20.9762772,29.6562116 16.9460224,29.6562116 Z M16.9460224,17.1269219 C14.0674181,17.1269219 11.725485,19.468855 11.725485,22.3474593 C11.725485,25.2260636 14.0674181,27.5679966 16.9460224,27.5679966 C19.8246267,27.5679966 22.1665597,25.2260636 22.1665597,22.3474593 C22.1665597,19.468855 19.8246267,17.1269219 16.9460224,17.1269219 Z" id="Shape"></path>
                    </g>
                </g>
            </g>
        </g>
    </g>
</svg>