<?xml version="1.0" encoding="UTF-8"?>
<svg width="50px" height="50px" viewBox="0 0 50 50" version="1.1" xmlns="http://www.w3.org/2000/svg" xmlns:xlink="http://www.w3.org/1999/xlink">
    <!-- Generator: Sketch 52.4 (67378) - http://www.bohemiancoding.com/sketch -->
    <title>flow3-icon6</title>
    <desc>Created with Sketch.</desc>
    <g id="flow3-icon6" stroke="none" stroke-width="1" fill="none" fill-rule="evenodd">
        <g id="Group" transform="translate(4.000000, 5.000000)">
            <path d="M3.51624348,28.3749561 C1.63029867,28.3749561 0.0959591012,26.8406165 0.0959591012,24.9546717 C0.0959591012,23.0687269 1.63029867,21.5343873 3.51624348,21.5343873 C5.40218829,21.5343873 6.93652786,23.0687269 6.93652786,24.9546717 C6.93652786,26.8406165 5.40218829,28.3749561 3.51624348,28.3749561 Z M3.51624348,22.9025011 C2.38481341,22.9025011 1.46407285,23.8232416 1.46407285,24.9546717 C1.46407285,26.0861018 2.38481341,27.0068423 3.51624348,27.0068423 C4.64767356,27.0068423 5.56841411,26.0861018 5.56841411,24.9546717 C5.56841411,23.8232416 4.64767356,22.9025011 3.51624348,22.9025011 Z" id="Shape" fill="#53B2FF" fill-rule="nonzero"></path>
            <path d="M9.23379767,16.0976384 C7.34785287,16.0976384 5.81351329,14.5632988 5.81351329,12.677354 C5.81351329,10.7914092 7.34785287,9.25706962 9.23379767,9.25706962 C11.1197425,9.25706962 12.6540821,10.7914092 12.6540821,12.677354 C12.6540821,14.5632988 11.1197425,16.0976384 9.23379767,16.0976384 Z M9.23379767,10.6251834 C8.1023676,10.6251834 7.18162705,11.5459239 7.18162705,12.677354 C7.18162705,13.8087841 8.1023676,14.7295246 9.23379767,14.7295246 C10.3652277,14.7295246 11.2859683,13.8087841 11.2859683,12.677354 C11.2859683,11.5459239 10.3652277,10.6251834 9.23379767,10.6251834 Z" id="Shape" fill="#53B2FF" fill-rule="nonzero"></path>
            <path d="M19.5098469,7.62617448 C17.6239021,7.62617448 16.0895626,6.09183491 16.0895626,4.2058901 C16.0895626,2.31994529 17.6239021,0.78560572 19.5098469,0.78560572 C21.3957917,0.78560572 22.9301313,2.31994529 22.9301313,4.2058901 C22.9301313,6.09183491 21.3957917,7.62617448 19.5098469,7.62617448 Z M19.5098469,2.15371947 C18.3784169,2.15371947 17.4576763,3.07446003 17.4576763,4.2058901 C17.4576763,5.33732017 18.3784169,6.25806073 19.5098469,6.25806073 C20.641277,6.25806073 21.5620176,5.33732017 21.5620176,4.2058901 C21.5620176,3.07446003 20.641277,2.15371947 19.5098469,2.15371947 Z" id="Shape" fill="#53B2FF" fill-rule="nonzero"></path>
            <path d="M30.2637111,16.0976384 C28.3777663,16.0976384 26.8434267,14.5632988 26.8434267,12.677354 C26.8434267,10.7914092 28.3777663,9.25706962 30.2637111,9.25706962 C32.1496559,9.25706962 33.6839955,10.7914092 33.6839955,12.677354 C33.6839955,14.5632988 32.1496559,16.0976384 30.2637111,16.0976384 Z M30.2637111,10.6251834 C29.132281,10.6251834 28.2115405,11.5459239 28.2115405,12.677354 C28.2115405,13.8087841 29.132281,14.7295246 30.2637111,14.7295246 C31.3951412,14.7295246 32.3158817,13.8087841 32.3158817,12.677354 C32.3158817,11.5459239 31.3951412,10.6251834 30.2637111,10.6251834 Z" id="Shape" fill="#53B2FF" fill-rule="nonzero"></path>
            <path d="M14.4953231,28.3749561 C12.6093783,28.3749561 11.0750387,26.8406165 11.0750387,24.9546717 C11.0750387,23.0687269 12.6093783,21.5343873 14.4953231,21.5343873 C16.3812679,21.5343873 17.9156075,23.0687269 17.9156075,24.9546717 C17.9156075,26.8406165 16.3812679,28.3749561 14.4953231,28.3749561 Z M14.4953231,22.9025011 C13.363893,22.9025011 12.4431525,23.8232416 12.4431525,24.9546717 C12.4431525,26.0861018 13.363893,27.0068423 14.4953231,27.0068423 C15.6267532,27.0068423 16.5474937,26.0861018 16.5474937,24.9546717 C16.5474937,23.8232416 15.6267532,22.9025011 14.4953231,22.9025011 Z" id="Shape" fill="#53B2FF" fill-rule="nonzero"></path>
            <path d="M24.598317,28.3749561 C22.7123722,28.3749561 21.1780326,26.8406165 21.1780326,24.9546717 C21.1780326,23.0687269 22.7123722,21.5343873 24.598317,21.5343873 C26.4842618,21.5343873 28.0186013,23.0687269 28.0186013,24.9546717 C28.0186013,26.8406165 26.4842618,28.3749561 24.598317,28.3749561 Z M24.598317,22.9025011 C23.4668869,22.9025011 22.5461463,23.8232416 22.5461463,24.9546717 C22.5461463,26.0861018 23.4668869,27.0068423 24.598317,27.0068423 C25.729747,27.0068423 26.6504876,26.0861018 26.6504876,24.9546717 C26.6504876,23.8232416 25.729747,22.9025011 24.598317,22.9025011 Z" id="Shape" fill="#53B2FF" fill-rule="nonzero"></path>
            <path d="M34.7013108,28.3749561 C32.815366,28.3749561 31.2810264,26.8406165 31.2810264,24.9546717 C31.2810264,23.0687269 32.815366,21.5343873 34.7013108,21.5343873 C36.5872556,21.5343873 38.1215952,23.0687269 38.1215952,24.9546717 C38.1215952,26.8406165 36.5872556,28.3749561 34.7013108,28.3749561 Z M34.7013108,22.9025011 C33.5698807,22.9025011 32.6491402,23.8232416 32.6491402,24.9546717 C32.6491402,26.0861018 33.5698807,27.0068423 34.7013108,27.0068423 C35.8327409,27.0068423 36.7534815,26.0861018 36.7534815,24.9546717 C36.7534815,23.8232416 35.8327409,22.9025011 34.7013108,22.9025011 Z" id="Shape" fill="#53B2FF" fill-rule="nonzero"></path>
            <path d="M7.29660668,15.1544908 L4.18836638,22.389549" id="Path-2" stroke="#53B2FF"></path>
            <path d="M28.3975469,15.1544908 L25.2893066,22.389549" id="Path-2" stroke="#53B2FF"></path>
            <path d="M14.183279,15.1544908 L11.0750387,22.389549" id="Path-2" stroke="#53B2FF" transform="translate(12.758871, 18.583704) scale(-1, 1) translate(-12.758871, -18.583704) "></path>
            <path d="M34.3892667,15.1544908 L31.2810264,22.389549" id="Path-2" stroke="#53B2FF" transform="translate(32.964859, 18.583704) scale(-1, 1) translate(-32.964859, -18.583704) "></path>
            <path d="M27.0126662,6.17405181 L21.0835785,10.6251834" id="Path-2" stroke="#53B2FF" transform="translate(24.451243, 7.941893) scale(-1, 1) translate(-24.451243, -7.941893) "></path>
            <path d="M17.3996005,6.17405181 L11.2859683,10.6251834" id="Path-2" stroke="#53B2FF"></path>
        </g>
    </g>
</svg>