<?xml version="1.0" encoding="UTF-8"?>
<svg width="58px" height="58px" viewBox="0 0 58 58" version="1.1" xmlns="http://www.w3.org/2000/svg" xmlns:xlink="http://www.w3.org/1999/xlink">
    <!-- Generator: Sketch 52.2 (67145) - http://www.bohemiancoding.com/sketch -->
    <title>icon-cloud</title>
    <desc>Created with Sketch.</desc>
    <g id="Dev" stroke="none" stroke-width="1" fill="none" fill-rule="evenodd">
        <g id="OnCorps_Home" transform="translate(-1016.000000, -5575.000000)" fill="#53B2FF" fill-rule="nonzero">
            <g id="Group-35" transform="translate(889.000000, 5521.000000)">
                <g id="Group-34">
                    <g id="icon-cloud" transform="translate(127.000000, 54.000000)">
                        <g id="15-cloud-hosting" transform="translate(0.630859, 0.281490)">
                            <path d="M45.4380609,37.4195796 L35.6376948,37.4195796 L35.6376948,35.6376948 L45.4380609,35.6376948 C50.8416264,35.6376948 55.238427,31.2408942 55.238427,25.8373288 C55.238427,20.7580663 51.791371,16.927905 47.2199457,16.927905 L46.3290033,16.927905 L46.3290033,16.0369627 C46.3290033,12.5907976 44.4562424,8.90942371 39.2014643,8.90942371 L37.7857569,8.90942371 L37.5318383,8.44969745 C35.218061,4.2747415 30.8470977,1.78188474 25.8373288,1.78188474 C18.4683444,1.78188474 12.4731932,7.77703596 12.4731932,15.1460203 L12.4731932,16.0369627 L11.5822508,16.0369627 C6.17868534,16.0369627 1.78188474,20.4337633 1.78188474,25.8373288 C1.78188474,31.2408942 6.17868534,35.6376948 11.5822508,35.6376948 L21.3826169,35.6376948 L21.3826169,37.4195796 L11.5822508,37.4195796 C5.19597591,37.4195796 0,32.2236037 0,25.8373288 C0,19.742392 4.73268587,14.7317321 10.7153639,14.2871519 C11.161726,6.33281837 17.7734094,0 25.8373288,0 C31.3192972,0 36.1339497,2.65411732 38.8245957,7.12753897 L39.2014643,7.12753897 C44.323492,7.12753897 47.7304556,10.2600923 48.080596,15.1834399 C53.2338067,15.6289111 57.0203117,20.0595675 57.0203117,25.8373288 C57.0203117,32.2236037 51.8243358,37.4195796 45.4380609,37.4195796 Z" id="Shape"></path>
                            <polygon id="Rectangle-path" points="7.12753897 42.7652338 13.3641356 42.7652338 13.3641356 44.5471185 7.12753897 44.5471185"></polygon>
                            <path d="M22.2735593,44.5471185 L20.4916745,44.5471185 L20.4916745,42.7652338 L22.2735593,42.7652338 C23.747178,42.7652338 24.9463864,41.5660254 24.9463864,40.0924067 L24.9463864,28.5101559 L26.7282711,28.5101559 L26.7282711,40.0924067 C26.7282711,42.5487348 24.7298874,44.5471185 22.2735593,44.5471185 Z" id="Shape"></path>
                            <polygon id="Rectangle-path" points="43.6561762 51.6746575 49.0018304 51.6746575 49.0018304 53.4565423 43.6561762 53.4565423"></polygon>
                            <path d="M36.5286372,53.4565423 L34.7467525,53.4565423 C32.2904243,53.4565423 30.2920406,51.4581585 30.2920406,49.0018304 L30.2920406,28.5101559 L32.0739254,28.5101559 L32.0739254,49.0018304 C32.0739254,50.4754491 33.2731338,51.6746575 34.7467525,51.6746575 L36.5286372,51.6746575 L36.5286372,53.4565423 Z" id="Shape"></path>
                            <polygon id="Rectangle-path" points="21.3826169 26.7282711 35.6376948 26.7282711 35.6376948 28.5101559 21.3826169 28.5101559"></polygon>
                            <path d="M4.45471185,48.110888 C1.99838374,48.110888 0,46.1125043 0,43.6561762 C0,41.1998481 1.99838374,39.2014643 4.45471185,39.2014643 C6.91103997,39.2014643 8.90942371,41.1998481 8.90942371,43.6561762 C8.90942371,46.1125043 6.91103997,48.110888 4.45471185,48.110888 Z M4.45471185,40.9833491 C2.98109317,40.9833491 1.78188474,42.1825575 1.78188474,43.6561762 C1.78188474,45.1297949 2.98109317,46.3290033 4.45471185,46.3290033 C5.92833054,46.3290033 7.12753897,45.1297949 7.12753897,43.6561762 C7.12753897,42.1825575 5.92833054,40.9833491 4.45471185,40.9833491 Z" id="Shape"></path>
                            <path d="M16.927905,48.110888 C14.4715769,48.110888 12.4731932,46.1125043 12.4731932,43.6561762 C12.4731932,41.1998481 14.4715769,39.2014643 16.927905,39.2014643 C19.3842332,39.2014643 21.3826169,41.1998481 21.3826169,43.6561762 C21.3826169,46.1125043 19.3842332,48.110888 16.927905,48.110888 Z M16.927905,40.9833491 C15.4542864,40.9833491 14.2550779,42.1825575 14.2550779,43.6561762 C14.2550779,45.1297949 15.4542864,46.3290033 16.927905,46.3290033 C18.4015237,46.3290033 19.6007322,45.1297949 19.6007322,43.6561762 C19.6007322,42.1825575 18.4015237,40.9833491 16.927905,40.9833491 Z" id="Shape"></path>
                            <path d="M40.0924067,57.0203117 C37.6360786,57.0203117 35.6376948,55.021928 35.6376948,52.5655999 C35.6376948,50.1092718 37.6360786,48.110888 40.0924067,48.110888 C42.5487348,48.110888 44.5471185,50.1092718 44.5471185,52.5655999 C44.5471185,55.021928 42.5487348,57.0203117 40.0924067,57.0203117 Z M40.0924067,49.8927728 C38.618788,49.8927728 37.4195796,51.0919812 37.4195796,52.5655999 C37.4195796,54.0392186 38.618788,55.238427 40.0924067,55.238427 C41.5660254,55.238427 42.7652338,54.0392186 42.7652338,52.5655999 C42.7652338,51.0919812 41.5660254,49.8927728 40.0924067,49.8927728 Z" id="Shape"></path>
                            <path d="M52.5655999,57.0203117 C50.1092718,57.0203117 48.110888,55.021928 48.110888,52.5655999 C48.110888,50.1092718 50.1092718,48.110888 52.5655999,48.110888 C55.021928,48.110888 57.0203117,50.1092718 57.0203117,52.5655999 C57.0203117,55.021928 55.021928,57.0203117 52.5655999,57.0203117 Z M52.5655999,49.8927728 C51.0919812,49.8927728 49.8927728,51.0919812 49.8927728,52.5655999 C49.8927728,54.0392186 51.0919812,55.238427 52.5655999,55.238427 C54.0392186,55.238427 55.238427,54.0392186 55.238427,52.5655999 C55.238427,51.0919812 54.0392186,49.8927728 52.5655999,49.8927728 Z" id="Shape"></path>
                        </g>
                    </g>
                </g>
            </g>
        </g>
    </g>
</svg>