<?xml version="1.0" encoding="UTF-8"?>
<svg width="59px" height="58px" viewBox="0 0 59 58" version="1.1" xmlns="http://www.w3.org/2000/svg" xmlns:xlink="http://www.w3.org/1999/xlink">
    <!-- Generator: Sketch 52.2 (67145) - http://www.bohemiancoding.com/sketch -->
    <title>icon-smart-workflows</title>
    <desc>Created with Sketch.</desc>
    <g id="Dev" stroke="none" stroke-width="1" fill="none" fill-rule="evenodd">
        <g id="OnCorps_Home" transform="translate(-688.000000, -5667.000000)" fill="#53B2FF" fill-rule="nonzero">
            <g id="Group-33" transform="translate(553.000000, 5597.000000)">
                <g id="icon-smart-workflows" transform="translate(135.000000, 70.000000)">
                    <g id="35-machine-learning" transform="translate(0.491091, 0.141721)">
                        <path d="M28.8132396,10.8049648 C25.8337705,10.8049648 23.4107571,8.38195147 23.4107571,5.40248242 C23.4107571,2.42301336 25.8337705,0 28.8132396,0 C31.7927086,0 34.215722,2.42301336 34.215722,5.40248242 C34.215722,8.38195147 31.7927086,10.8049648 28.8132396,10.8049648 Z M28.8132396,1.80082747 C26.8269269,1.80082747 25.2115846,3.41616972 25.2115846,5.40248242 C25.2115846,7.38879512 26.8269269,9.00413736 28.8132396,9.00413736 C30.7995523,9.00413736 32.4148945,7.38879512 32.4148945,5.40248242 C32.4148945,3.41616972 30.7995523,1.80082747 28.8132396,1.80082747 Z" id="Shape"></path>
                        <path d="M45.9211005,17.107861 C42.9416315,17.107861 40.5186181,14.6848476 40.5186181,11.7053786 C40.5186181,8.72590952 42.9416315,6.30289615 45.9211005,6.30289615 C48.9005696,6.30289615 51.323583,8.72590952 51.323583,11.7053786 C51.323583,14.6848476 48.9005696,17.107861 45.9211005,17.107861 Z M45.9211005,8.10372363 C43.9347878,8.10372363 42.3194456,9.71906587 42.3194456,11.7053786 C42.3194456,13.6916913 43.9347878,15.3070335 45.9211005,15.3070335 C47.9074132,15.3070335 49.5227555,13.6916913 49.5227555,11.7053786 C49.5227555,9.71906587 47.9074132,8.10372363 45.9211005,8.10372363 Z" id="Shape"></path>
                        <path d="M52.2239967,34.215722 C49.2445276,34.215722 46.8215143,31.7927086 46.8215143,28.8132396 C46.8215143,25.8337705 49.2445276,23.4107571 52.2239967,23.4107571 C55.2034658,23.4107571 57.6264791,25.8337705 57.6264791,28.8132396 C57.6264791,31.7927086 55.2034658,34.215722 52.2239967,34.215722 Z M52.2239967,25.2115846 C50.237684,25.2115846 48.6223418,26.8269269 48.6223418,28.8132396 C48.6223418,30.7995523 50.237684,32.4148945 52.2239967,32.4148945 C54.2103094,32.4148945 55.8256516,30.7995523 55.8256516,28.8132396 C55.8256516,26.8269269 54.2103094,25.2115846 52.2239967,25.2115846 Z" id="Shape"></path>
                        <path d="M45.9211005,51.323583 C42.9416315,51.323583 40.5186181,48.9005696 40.5186181,45.9211005 C40.5186181,42.9416315 42.9416315,40.5186181 45.9211005,40.5186181 C48.9005696,40.5186181 51.323583,42.9416315 51.323583,45.9211005 C51.323583,48.9005696 48.9005696,51.323583 45.9211005,51.323583 Z M45.9211005,42.3194456 C43.9347878,42.3194456 42.3194456,43.9347878 42.3194456,45.9211005 C42.3194456,47.9074132 43.9347878,49.5227555 45.9211005,49.5227555 C47.9074132,49.5227555 49.5227555,47.9074132 49.5227555,45.9211005 C49.5227555,43.9347878 47.9074132,42.3194456 45.9211005,42.3194456 Z" id="Shape"></path>
                        <path d="M11.7053786,17.107861 C8.72590952,17.107861 6.30289615,14.6848476 6.30289615,11.7053786 C6.30289615,8.72590952 8.72590952,6.30289615 11.7053786,6.30289615 C14.6848476,6.30289615 17.107861,8.72590952 17.107861,11.7053786 C17.107861,14.6848476 14.6848476,17.107861 11.7053786,17.107861 Z M11.7053786,8.10372363 C9.71906587,8.10372363 8.10372363,9.71906587 8.10372363,11.7053786 C8.10372363,13.6916913 9.71906587,15.3070335 11.7053786,15.3070335 C13.6916913,15.3070335 15.3070335,13.6916913 15.3070335,11.7053786 C15.3070335,9.71906587 13.6916913,8.10372363 11.7053786,8.10372363 Z" id="Shape"></path>
                        <path d="M5.40248242,34.215722 C2.42301336,34.215722 0,31.7927086 0,28.8132396 C0,25.8337705 2.42301336,23.4107571 5.40248242,23.4107571 C8.38195147,23.4107571 10.8049648,25.8337705 10.8049648,28.8132396 C10.8049648,31.7927086 8.38195147,34.215722 5.40248242,34.215722 Z M5.40248242,25.2115846 C3.41616972,25.2115846 1.80082747,26.8269269 1.80082747,28.8132396 C1.80082747,30.7995523 3.41616972,32.4148945 5.40248242,32.4148945 C7.38879512,32.4148945 9.00413736,30.7995523 9.00413736,28.8132396 C9.00413736,26.8269269 7.38879512,25.2115846 5.40248242,25.2115846 Z" id="Shape"></path>
                        <path d="M11.7053786,51.323583 C8.72590952,51.323583 6.30289615,48.9005696 6.30289615,45.9211005 C6.30289615,42.9416315 8.72590952,40.5186181 11.7053786,40.5186181 C14.6848476,40.5186181 17.107861,42.9416315 17.107861,45.9211005 C17.107861,48.9005696 14.6848476,51.323583 11.7053786,51.323583 Z M11.7053786,42.3194456 C9.71906587,42.3194456 8.10372363,43.9347878 8.10372363,45.9211005 C8.10372363,47.9074132 9.71906587,49.5227555 11.7053786,49.5227555 C13.6916913,49.5227555 15.3070335,47.9074132 15.3070335,45.9211005 C15.3070335,43.9347878 13.6916913,42.3194456 11.7053786,42.3194456 Z" id="Shape"></path>
                        <path d="M28.8132396,57.6264791 C25.8337705,57.6264791 23.4107571,55.2034658 23.4107571,52.2239967 C23.4107571,49.2445276 25.8337705,46.8215143 28.8132396,46.8215143 C31.7927086,46.8215143 34.215722,49.2445276 34.215722,52.2239967 C34.215722,55.2034658 31.7927086,57.6264791 28.8132396,57.6264791 Z M28.8132396,48.6223418 C26.8269269,48.6223418 25.2115846,50.237684 25.2115846,52.2239967 C25.2115846,54.2103094 26.8269269,55.8256516 28.8132396,55.8256516 C30.7995523,55.8256516 32.4148945,54.2103094 32.4148945,52.2239967 C32.4148945,50.237684 30.7995523,48.6223418 28.8132396,48.6223418 Z" id="Shape"></path>
                        <path d="M28.8132396,53.1244104 C28.4512732,53.1244104 28.124423,52.9083111 27.9839585,52.5742576 L23.4872923,41.924164 L12.0565399,46.7503816 C11.7188848,46.8935474 11.3290056,46.8170122 11.0696865,46.5576931 C10.8103673,46.2983739 10.7338321,45.9084948 10.8769979,45.5708396 L15.7032156,34.1391868 L5.05222147,29.6425206 C4.71906839,29.5020561 4.50206868,29.1752059 4.50206868,28.8132396 C4.50206868,28.4512732 4.71906839,28.124423 5.05222147,27.9839585 L15.7023151,23.4872923 L10.8760975,12.0556395 C10.7338321,11.7179844 10.8103673,11.3281052 11.0687861,11.0687861 C11.3281052,10.8094669 11.7188848,10.7320313 12.0556395,10.8760975 L23.4863919,15.7023151 L27.9830581,5.05222147 C28.124423,4.71816798 28.4512732,4.50206868 28.8132396,4.50206868 C29.1752059,4.50206868 29.5020561,4.71816798 29.6425206,5.05222147 L34.1391868,15.7023151 L45.5699392,10.8760975 C45.9075943,10.7320313 46.2974735,10.8094669 46.5567926,11.0687861 C46.8161118,11.3281052 46.892647,11.7179844 46.7494812,12.0556395 L41.9232636,23.4872923 L52.5733572,27.9839585 C52.9074107,28.124423 53.1244104,28.4512732 53.1244104,28.8132396 C53.1244104,29.1752059 52.9074107,29.5020561 52.5742576,29.6425206 L41.924164,34.1391868 L46.6864522,45.4177693 C46.7827965,45.5618355 46.8395226,45.7347149 46.8395226,45.9211005 C46.8395226,46.4190293 46.4361372,46.8215143 45.9391088,46.8215143 C45.9328059,46.8215143 45.9256026,46.8215143 45.9211005,46.8215143 C45.8031463,46.8215143 45.6842917,46.7990039 45.5708396,46.7503816 L34.1400872,41.924164 L29.643421,52.5742576 C29.5020561,52.9083111 29.1752059,53.1244104 28.8132396,53.1244104 Z M25.1458544,41.2236421 L28.8132396,49.909033 L32.4806247,41.2236421 L28.8132396,39.6749305 L25.1458544,41.2236421 Z M34.8397087,40.2656019 L44.2292231,44.2292231 L40.2647015,34.8397087 L36.4505489,36.4505489 L34.8397087,40.2656019 Z M17.3617777,34.8397087 L13.397256,44.2292231 L22.7867704,40.2656019 L21.1759302,36.4514493 L17.3617777,34.8397087 Z M31.1282033,38.6979816 L33.1811466,39.56508 L34.0716558,37.4554106 L31.1282033,38.6979816 Z M23.5548233,37.4554106 L24.4453325,39.56508 L26.4982758,38.6979816 L23.5548233,37.4554106 Z M22.5499616,35.0756171 L28.8132396,37.7210326 L35.0765175,35.0756171 L37.7201322,28.8132396 L35.0756171,22.550862 L28.8132396,19.9054465 L22.5499616,22.550862 L19.9063469,28.8132396 L22.5499616,35.0756171 Z M38.6979816,31.1282033 L37.4554106,34.0716558 L39.56508,33.1811466 L38.6979816,31.1282033 Z M18.0622995,33.1811466 L20.1719689,34.0716558 L18.929398,31.1282033 L18.0622995,33.1811466 Z M39.6749305,28.8132396 L41.2227417,32.4806247 L49.909033,28.8132396 L41.2236421,25.1458544 L39.6749305,28.8132396 Z M7.71744613,28.8132396 L16.402837,32.4806247 L17.9515487,28.8132396 L16.4037374,25.1458544 L7.71744613,28.8132396 Z M37.4554106,23.5548233 L38.6979816,26.4982758 L39.56508,24.4462329 L37.4554106,23.5548233 Z M18.0622995,24.4453325 L18.929398,26.4973754 L20.1719689,23.5539229 L18.0622995,24.4453325 Z M36.4505489,21.1759302 L40.2647015,22.7867704 L44.2292231,13.397256 L34.8397087,17.3608772 L36.4505489,21.1759302 Z M13.397256,13.397256 L17.3617777,22.7867704 L21.1759302,21.1759302 L22.7867704,17.3617777 L13.397256,13.397256 Z M31.1282033,18.9284976 L34.0716558,20.1710685 L33.1811466,18.0613991 L31.1282033,18.9284976 Z M24.4453325,18.0622995 L23.5548233,20.1719689 L26.4982758,18.929398 L24.4453325,18.0622995 Z M25.1458544,16.402837 L28.8132396,17.9515487 L32.4806247,16.402837 L28.8132396,7.71744613 L25.1458544,16.402837 Z" id="Shape"></path>
                        <polygon id="Rectangle-path" points="26.1119983 24.3111709 27.9128258 24.3111709 27.9128258 26.1119983 26.1119983 26.1119983"></polygon>
                        <polygon id="Rectangle-path" points="29.7136533 24.3111709 31.5144808 24.3111709 31.5144808 26.1119983 29.7136533 26.1119983"></polygon>
                        <rect id="Rectangle-path" x="31.5144808" y="27.9128258" width="1.80082747" height="1.80082747"></rect>
                        <rect id="Rectangle-path" x="27.9128258" y="27.9128258" width="1.80082747" height="1.80082747"></rect>
                        <rect id="Rectangle-path" x="24.3111709" y="27.9128258" width="1.80082747" height="1.80082747"></rect>
                        <polygon id="Rectangle-path" points="29.7136533 31.5144808 31.5144808 31.5144808 31.5144808 33.3153082 29.7136533 33.3153082"></polygon>
                        <polygon id="Rectangle-path" points="26.1119983 31.5144808 27.9128258 31.5144808 27.9128258 33.3153082 26.1119983 33.3153082"></polygon>
                    </g>
                </g>
            </g>
        </g>
    </g>
</svg>