<?xml version="1.0" encoding="UTF-8"?>
<svg width="50px" height="50px" viewBox="0 0 50 50" version="1.1" xmlns="http://www.w3.org/2000/svg" xmlns:xlink="http://www.w3.org/1999/xlink">
    <!-- Generator: Sketch 52.2 (67145) - http://www.bohemiancoding.com/sketch -->
    <title>flow1-icon1</title>
    <desc>Created with Sketch.</desc>
    <g id="flow1-icon1" stroke="none" stroke-width="1" fill="none" fill-rule="evenodd">
        <g id="Group-12" fill-rule="nonzero" stroke="#53B2FF" stroke-width="1.5">
            <g id="icon-cog-gear">
                <path d="M21.7441863,16.3081397 C21.7441863,14.8188119 21.2229215,13.5528832 20.1803921,12.4358874 C19.0633962,11.3933579 17.7974675,10.8720931 16.3081397,10.8720931 C14.8188119,10.8720931 13.5528832,11.3933579 12.4358874,12.4358874 C11.3933579,13.5528832 10.8720931,14.8188119 10.8720931,16.3081397 C10.8720931,17.7974675 11.3933579,19.0633962 12.4358874,20.1803921 C13.5528832,21.2229215 14.8188119,21.7441863 16.3081397,21.7441863 C17.7974675,21.7441863 19.0633962,21.2229215 20.1803921,20.1803921 C21.2229215,19.0633962 21.7441863,17.7974675 21.7441863,16.3081397 Z M32.6162794,13.9996816 L32.6162794,18.6910642 C32.6162794,18.9144634 32.6162794,19.0633962 32.4673466,19.212329 C32.3928803,19.3612618 32.2439475,19.4357282 32.0205483,19.5101945 L28.1482959,20.1059257 C27.8504304,20.8505896 27.5525648,21.5207871 27.2546992,22.0420519 C27.775964,22.7122494 28.5206279,23.6803125 29.5631574,24.9462411 C29.7120902,25.0951739 29.7865566,25.3185731 29.7865566,25.4675059 C29.7865566,25.690905 29.7120902,25.8398378 29.5631574,25.9887706 C29.1908254,26.5100353 28.5206279,27.2546992 27.4780984,28.2972287 C26.4355689,29.2652918 25.7653714,29.7865566 25.4675059,29.7865566 C25.3185731,29.7865566 25.0951739,29.7120902 24.9462411,29.5631574 L21.9675855,27.2546992 C21.3718543,27.6270312 20.7016568,27.8504304 20.0314593,28.0738296 C19.8080601,30.0099557 19.5846609,31.3503508 19.4357282,32.0205483 C19.3612618,32.4673466 19.0633962,32.6162794 18.6910642,32.6162794 L13.9252152,32.6162794 C13.7762824,32.6162794 13.5528832,32.6162794 13.4039505,32.4673466 C13.2550177,32.3184139 13.1805513,32.1694811 13.1805513,32.0205483 L12.5848201,28.0738296 C11.9146226,27.8504304 11.2444251,27.6270312 10.648694,27.3291656 L7.67003831,29.5631574 C7.52110553,29.7120902 7.37217275,29.7865566 7.14877357,29.7865566 C6.9253744,29.7865566 6.77644162,29.7120902 6.62750883,29.5631574 C4.84031544,27.9248968 3.64885318,26.7334345 3.12758844,25.9887706 C2.97865566,25.8398378 2.97865566,25.690905 2.97865566,25.4675059 C2.97865566,25.3185731 2.97865566,25.1696403 3.12758844,25.0207075 C3.35098761,24.7228419 3.72331957,24.2015772 4.17011792,23.6058461 C4.69138266,22.9356485 5.06371461,22.4143838 5.36158018,22.0420519 C4.98924822,21.3718543 4.69138266,20.6271904 4.46798348,19.9569929 L0.595731131,19.3612618 C0.372331957,19.3612618 0.223399174,19.2867954 0.148932783,19.1378626 C0,18.9889298 0,18.839997 0,18.6165978 L0,13.9252152 C0,13.701816 0,13.5528832 0.148932783,13.4039505 C0.223399174,13.2550177 0.372331957,13.1805513 0.52126474,13.1060849 L4.46798348,12.5103538 C4.69138266,11.9146226 4.98924822,11.2444251 5.36158018,10.5742276 C4.76584905,9.75509727 4.02118514,8.78703418 3.05312205,7.67003831 C2.90418926,7.44663914 2.82972287,7.29770636 2.82972287,7.14877357 C2.82972287,6.99984079 2.90418926,6.85090801 3.05312205,6.62750883 C3.425454,6.10624409 4.09565153,5.36158018 5.13818101,4.39351709 C6.18071049,3.35098761 6.85090801,2.82972287 7.14877357,2.82972287 C7.29770636,2.82972287 7.52110553,2.90418926 7.67003831,3.05312205 L10.648694,5.36158018 C11.2444251,4.98924822 11.9146226,4.76584905 12.5848201,4.54244987 C12.8082193,2.6063237 13.0316185,1.26592865 13.1805513,0.595731131 C13.2550177,0.148932783 13.5528832,0 13.9252152,0 L18.6910642,0 C18.839997,0 19.0633962,0 19.212329,0.148932783 C19.3612618,0.297865566 19.4357282,0.446798348 19.4357282,0.595731131 L20.0314593,4.54244987 C20.7016568,4.76584905 21.3718543,4.98924822 21.9675855,5.28711379 L24.9462411,3.05312205 C25.0951739,2.90418926 25.2441067,2.82972287 25.4675059,2.82972287 C25.690905,2.82972287 25.8398378,2.90418926 25.9887706,3.05312205 C27.8504304,4.76584905 29.0418926,5.95731131 29.488691,6.70197523 C29.6376238,6.77644162 29.6376238,6.9253744 29.6376238,7.14877357 C29.6376238,7.29770636 29.6376238,7.44663914 29.488691,7.59557192 C29.2652918,7.89343749 28.8929599,8.41470223 28.4461615,9.01043336 C27.9248968,9.68063088 27.5525648,10.2018956 27.2546992,10.5742276 C27.6270312,11.2444251 27.9248968,11.9146226 28.1482959,12.6592865 L32.0205483,13.2550177 C32.2439475,13.2550177 32.3928803,13.3294841 32.4673466,13.4784168 C32.6162794,13.6273496 32.6162794,13.7762824 32.6162794,13.9996816 Z" id="Shape"></path>
            </g>
            <g id="icon-cog-gear" transform="translate(38.888624, 37.794377) rotate(-330.000000) translate(-38.888624, -37.794377) translate(28.388624, 27.294377)">
                <path d="M13.5811867,10.18589 C13.5811867,9.25567178 13.2556103,8.46498625 12.6044575,7.76732255 C11.9067938,7.11616976 11.1161083,6.79059337 10.18589,6.79059337 C9.25567178,6.79059337 8.46498625,7.11616976 7.76732255,7.76732255 C7.11616976,8.46498625 6.79059337,9.25567178 6.79059337,10.18589 C6.79059337,11.1161083 7.11616976,11.9067938 7.76732255,12.6044575 C8.46498625,13.2556103 9.25567178,13.5811867 10.18589,13.5811867 C11.1161083,13.5811867 11.9067938,13.2556103 12.6044575,12.6044575 C13.2556103,11.9067938 13.5811867,11.1161083 13.5811867,10.18589 Z M20.3717801,8.74405173 L20.3717801,11.6742393 C20.3717801,11.813772 20.3717801,11.9067938 20.2787583,11.9998157 C20.2322474,12.0928375 20.1392255,12.1393484 19.9996928,12.1858593 L17.5811253,12.5579466 C17.3950816,13.0230558 17.209038,13.441654 17.0229943,13.7672304 C17.3485707,14.1858286 17.8136799,14.7904705 18.4648326,15.581156 C18.5578545,15.6741778 18.6043654,15.8137106 18.6043654,15.9067324 C18.6043654,16.0462651 18.5578545,16.139287 18.4648326,16.2323088 C18.2322781,16.5578852 17.8136799,17.0229943 17.1625271,17.6741471 C16.5113743,18.278789 16.0927761,18.6043654 15.9067324,18.6043654 C15.8137106,18.6043654 15.6741778,18.5578545 15.581156,18.4648326 L13.7207195,17.0229943 C13.3486322,17.2555489 12.9300339,17.3950816 12.5114357,17.5346144 C12.371903,18.7438981 12.2323702,19.5810946 12.1393484,19.9996928 C12.0928375,20.2787583 11.9067938,20.3717801 11.6742393,20.3717801 L8.69754082,20.3717801 C8.60451899,20.3717801 8.46498625,20.3717801 8.37196442,20.2787583 C8.2789426,20.1857364 8.23243168,20.0927146 8.23243168,19.9996928 L7.86034438,17.5346144 C7.44174615,17.3950816 7.02314793,17.2555489 6.65106063,17.0695052 L4.79062409,18.4648326 C4.69760226,18.5578545 4.60458043,18.6043654 4.46504769,18.6043654 C4.32551495,18.6043654 4.23249313,18.5578545 4.1394713,18.4648326 C3.02320938,17.4415925 2.27903476,16.6974179 1.95345837,16.2323088 C1.86043654,16.139287 1.86043654,16.0462651 1.86043654,15.9067324 C1.86043654,15.8137106 1.86043654,15.7206888 1.95345837,15.6276669 C2.09299111,15.4416233 2.32554567,15.1160469 2.60461115,14.7439596 C2.93018755,14.3253613 3.16274212,13.999785 3.34878577,13.7672304 C3.1162312,13.3486322 2.93018755,12.883523 2.79065481,12.4649248 L0.372087308,12.0928375 C0.232554567,12.0928375 0.13953274,12.0463266 0.0930218269,11.9533048 C0,11.8602829 0,11.7672611 0,11.6277284 L0,8.69754082 C0,8.55800808 0,8.46498625 0.0930218269,8.37196442 C0.13953274,8.2789426 0.232554567,8.23243168 0.325576394,8.18592077 L2.79065481,7.81383346 C2.93018755,7.44174615 3.1162312,7.02314793 3.34878577,6.60454971 C2.97669846,6.09292966 2.51158933,5.48828779 1.90694745,4.79062409 C1.81392563,4.65109135 1.76741471,4.55806952 1.76741471,4.46504769 C1.76741471,4.37202587 1.81392563,4.27900404 1.90694745,4.1394713 C2.13950202,3.8138949 2.55810024,3.34878577 3.20925303,2.74414389 C3.86040582,2.09299111 4.27900404,1.76741471 4.46504769,1.76741471 C4.55806952,1.76741471 4.69760226,1.81392563 4.79062409,1.90694745 L6.65106063,3.34878577 C7.02314793,3.1162312 7.44174615,2.97669846 7.86034438,2.83716572 C7.99987712,1.62788197 8.13940986,0.790685529 8.23243168,0.372087308 C8.2789426,0.0930218269 8.46498625,0 8.69754082,0 L11.6742393,0 C11.7672611,0 11.9067938,0 11.9998157,0.0930218269 C12.0928375,0.186043654 12.1393484,0.279065481 12.1393484,0.372087308 L12.5114357,2.83716572 C12.9300339,2.97669846 13.3486322,3.1162312 13.7207195,3.30227486 L15.581156,1.90694745 C15.6741778,1.81392563 15.7671997,1.76741471 15.9067324,1.76741471 C16.0462651,1.76741471 16.139287,1.81392563 16.2323088,1.90694745 C17.3950816,2.97669846 18.1392563,3.72087308 18.4183217,4.18598221 C18.5113436,4.23249313 18.5113436,4.32551495 18.5113436,4.46504769 C18.5113436,4.55806952 18.5113436,4.65109135 18.4183217,4.74411317 C18.278789,4.93015683 18.0462344,5.25573322 17.7671689,5.62782053 C17.4415925,6.04641875 17.209038,6.37199514 17.0229943,6.60454971 C17.2555489,7.02314793 17.4415925,7.44174615 17.5811253,7.90685529 L19.9996928,8.2789426 C20.1392255,8.2789426 20.2322474,8.32545351 20.2787583,8.41847534 C20.3717801,8.51149716 20.3717801,8.60451899 20.3717801,8.74405173 Z" id="Shape"></path>
            </g>
        </g>
    </g>
</svg>